<svg
  xmlns="http://www.w3.org/2000/svg"
  width="350"
  height="450"
  viewBox="0 0 350 450"
  fill="none"
  stroke-width="2"
>
  <!-- Lines -->
  <line x1="60" y1="700" x2="60" y2="0" stroke="red" />
  <line x1="80" y1="700" x2="80" y2="0" stroke="powderblue" />
  <line x1="100" y1="700" x2="100" y2="0" stroke="powderblue" />
  <line x1="120" y1="700" x2="120" y2="0" stroke="powderblue" />
  <line x1="140" y1="700" x2="140" y2="0" stroke="powderblue" />
  <line x1="160" y1="700" x2="160" y2="0" stroke="powderblue" />
  <line x1="180" y1="700" x2="180" y2="0" stroke="powderblue" />
  <line x1="200" y1="700" x2="200" y2="0" stroke="powderblue" />
  <line x1="220" y1="700" x2="220" y2="0" stroke="powderblue" />
  <line x1="240" y1="700" x2="240" y2="0" stroke="powderblue" />
  <line x1="260" y1="700" x2="260" y2="0" stroke="powderblue" />
  <line x1="280" y1="700" x2="280" y2="0" stroke="powderblue" />
  <line x1="300" y1="700" x2="300" y2="0" stroke="powderblue" />
  <line x1="320" y1="700" x2="320" y2="0" stroke="powderblue" />
  <line x1="340" y1="700" x2="340" y2="0" stroke="powderblue" />
</svg>