<svg
  xmlns="http://www.w3.org/2000/svg"
  width="450"
  height="350"
  viewBox="0 0 450 350"
  fill="white"
  stroke-width="2"
>
  <!-- Index card body -->
  <rect x="0" y="0" width="450" height="300" rx="5" ry="5" />
  <!-- Lines -->
  <line x1="0" y1="40" x2="450" y2="40" stroke="red" />
  <line x1="0" y1="60" x2="450" y2="60" stroke="powderblue" />
  <line x1="0" y1="80" x2="450" y2="80" stroke="powderblue" />
  <line x1="0" y1="100" x2="450" y2="100" stroke="powderblue" />
  <line x1="0" y1="120" x2="450" y2="120" stroke="powderblue" />
  <line x1="0" y1="140" x2="450" y2="140" stroke="powderblue" />
  <line x1="0" y1="160" x2="450" y2="160" stroke="powderblue" />
  <line x1="0" y1="180" x2="450" y2="180" stroke="powderblue" />
  <line x1="0" y1="200" x2="450" y2="200" stroke="powderblue" />
  <line x1="0" y1="220" x2="450" y2="220" stroke="powderblue" />
  <line x1="0" y1="240" x2="450" y2="240" stroke="powderblue" />
  <line x1="0" y1="260" x2="450" y2="260" stroke="powderblue" />
  <line x1="0" y1="280" x2="450" y2="280" stroke="powderblue" />
</svg>